<?xml version="1.0" encoding="UTF-8" standalone="no"?>
<!DOCTYPE svg PUBLIC "-//W3C//DTD SVG 1.1//EN" "http://www.w3.org/Graphics/SVG/1.1/DTD/svg11.dtd">
<svg width="100%" height="100%" viewBox="0 0 400 400" version="1.1" xmlns="http://www.w3.org/2000/svg" xmlns:xlink="http://www.w3.org/1999/xlink" xml:space="preserve" xmlns:serif="http://www.serif.com/" style="fill-rule:evenodd;clip-rule:evenodd;stroke-linejoin:round;stroke-miterlimit:2;">
    <rect id="Artboard1" x="0" y="0" width="400" height="400" style="fill:none;"/>
    <g id="Artboard11" serif:id="Artboard1">
        <g transform="matrix(1.00554,0,0,1.00554,-3123.32,-273.01)">
            <circle cx="3305.02" cy="470.405" r="198.898" style="fill:rgb(228,255,0);"/>
        </g>
        <g transform="matrix(1.53874,-5.55112e-17,5.55112e-17,1.53874,-5048.51,-392.751)">
            <path d="M3317.62,391.02C3317.62,389.52 3323.32,384.12 3324.82,384.12C3325.32,384.12 3326.32,382.62 3327.02,380.72C3327.72,378.92 3329.42,374.62 3330.82,371.32C3332.92,366.42 3334.62,359.42 3336.32,349.02C3336.32,348.92 3337.32,348.32 3338.42,347.72C3341.72,345.92 3343.52,347.52 3344.72,353.52C3345.32,356.62 3347.02,361.92 3348.42,365.32C3349.82,368.72 3351.22,373.52 3351.62,376.02C3352.02,378.42 3353.12,382.72 3354.22,385.52C3355.32,388.22 3356.12,390.92 3356.12,391.52C3356.12,392.02 3354.32,392.52 3352.02,392.52C3348.22,392.52 3347.82,392.22 3346.72,388.62L3345.52,384.62L3339.62,384.72C3333.72,384.72 3329.52,386.62 3326.02,390.82C3324.32,392.92 3317.62,393.02 3317.62,391.02ZM3344.32,376.42C3344.62,375.62 3344.32,373.82 3343.52,372.52C3342.82,371.22 3341.92,368.42 3341.62,366.42C3340.82,361.52 3339.12,362.22 3338.22,367.72C3337.92,370.12 3337.22,373.42 3336.82,375.02C3336.12,377.72 3336.32,377.92 3339.92,377.92C3342.22,377.92 3343.92,377.32 3344.32,376.42Z" style="fill-rule:nonzero;"/>
            <path d="M3361.82,390.92C3360.02,388.92 3360.12,388.82 3363.12,385.82C3365.02,383.82 3365.72,382.12 3365.72,378.92C3365.72,376.52 3366.32,373.92 3367.22,373.02C3369.92,370.42 3369.22,368.52 3365.82,369.12C3362.62,369.82 3361.02,367.92 3362.52,365.42C3363.42,363.92 3370.22,362.52 3373.72,363.12C3375.92,363.42 3376.12,364.02 3376.12,369.42C3376.12,372.62 3375.52,376.32 3374.82,377.52C3374.12,378.72 3372.82,380.82 3372.12,382.12C3370.82,384.22 3370.82,384.42 3372.52,383.72C3373.52,383.42 3374.92,383.62 3375.72,384.32C3377.02,385.32 3376.72,386.12 3373.82,389.02C3371.22,391.72 3369.62,392.42 3366.82,392.42C3364.72,392.42 3362.52,391.72 3361.82,390.92ZM3368.52,359.42C3365.82,358.82 3364.92,353.92 3367.22,352.32C3370.72,349.72 3378.62,355.12 3375.42,358.12C3374.12,359.32 3370.62,360.02 3368.52,359.42Z" style="fill-rule:nonzero;"/>
            <path d="M3387.12,390.22C3385.42,381.42 3384.52,372.22 3385.12,368.12C3385.72,363.82 3385.52,363.32 3383.62,363.32C3382.02,363.32 3381.72,362.82 3382.12,360.72C3382.32,359.32 3383.22,358.12 3384.02,358.12C3384.92,358.12 3385.62,356.22 3386.12,352.82C3386.52,349.52 3387.72,346.32 3389.32,344.42C3391.62,341.72 3392.52,341.42 3398.12,341.42L3404.32,341.42L3404.02,344.82C3403.72,348.12 3403.52,348.22 3399.22,347.92C3394.52,347.62 3394.42,347.72 3393.42,353.72C3392.82,356.82 3393.02,357.02 3395.62,357.02C3398.92,357.02 3400.32,356.22 3401.92,353.42L3403.12,351.32L3403.12,353.42C3403.12,354.52 3402.62,357.22 3402.02,359.42C3401.02,363.22 3400.82,363.32 3396.32,363.32L3391.62,363.32L3391.82,369.92C3391.92,373.52 3391.72,377.02 3391.32,377.72C3390.92,378.32 3391.42,379.72 3392.52,380.82C3394.12,382.32 3394.32,383.72 3393.92,387.32C3393.32,391.42 3392.92,392.02 3390.42,392.32C3388.22,392.52 3387.52,392.12 3387.12,390.22ZM3397.12,375.52C3397.32,374.22 3397.92,373.22 3398.52,373.22C3399.02,373.22 3399.62,374.22 3399.82,375.52C3400.12,377.12 3399.62,377.92 3398.52,377.92C3397.32,377.92 3396.92,377.12 3397.12,375.52Z" style="fill-rule:nonzero;"/>
            <path d="M3414.92,391.52C3410.22,388.62 3408.32,384.32 3408.32,376.92C3408.32,367.32 3411.92,360.52 3419.02,356.92C3423.92,354.42 3430.12,354.92 3436.32,358.22C3441.72,361.02 3444.02,368.12 3442.62,377.12C3441.42,384.92 3439.52,387.72 3433.32,391.02C3427.42,394.22 3419.62,394.42 3414.92,391.52ZM3425.82,386.22C3427.62,385.12 3430.12,384.12 3431.22,384.12C3434.02,384.12 3435.62,377.82 3434.62,370.02C3433.92,364.92 3433.42,363.72 3431.22,362.62C3427.52,360.72 3422.52,360.92 3419.82,363.02C3417.22,365.22 3414.82,371.62 3415.12,375.62C3415.32,377.12 3415.42,379.42 3415.52,380.62C3415.62,382.82 3419.92,388.32 3421.52,388.32C3422.02,388.32 3423.92,387.32 3425.82,386.22Z" style="fill-rule:nonzero;"/>
            <path d="M3449.02,387.82C3449.32,385.32 3449.12,381.02 3448.42,378.42C3447.72,375.72 3447.02,370.12 3446.72,365.92C3446.32,359.02 3446.42,358.22 3448.32,357.62C3449.42,357.22 3451.32,357.42 3452.42,358.12C3454.02,358.92 3455.12,358.82 3456.92,357.72C3459.92,355.82 3466.22,354.72 3469.42,355.52C3473.82,356.62 3474.82,359.72 3474.92,372.72C3475.02,379.32 3475.42,386.42 3475.82,388.62C3476.62,392.42 3476.62,392.52 3473.62,392.52C3471.82,392.52 3469.02,392.22 3467.12,391.82C3463.42,391.02 3461.02,387.72 3462.82,385.82C3463.72,384.92 3464.52,385.32 3466.12,387.22L3468.12,389.92L3468.22,378.92C3468.22,372.92 3468.32,366.72 3468.32,365.12C3468.42,361.62 3468.02,361.22 3464.92,361.02C3460.32,360.82 3459.22,361.22 3456.32,363.92C3454.32,365.82 3453.72,367.02 3454.42,368.22C3454.92,369.12 3455.12,370.72 3454.82,371.82C3454.52,372.82 3454.72,373.72 3455.22,373.72C3455.82,373.72 3456.02,375.62 3455.82,377.92C3455.22,383.72 3456.42,389.32 3458.22,389.32C3459.12,389.32 3459.52,390.02 3459.12,390.92C3458.72,392.02 3457.02,392.52 3453.42,392.52L3448.32,392.52L3449.02,387.82Z" style="fill-rule:nonzero;"/>
            <path d="M3491.32,392.42C3488.02,390.42 3486.92,386.82 3486.42,375.42C3485.92,365.32 3485.62,364.02 3483.92,363.72C3481.42,363.42 3481.32,363.12 3482.32,360.42C3482.82,359.12 3483.92,358.12 3484.72,358.12C3485.72,358.12 3486.52,356.32 3487.12,352.62C3487.92,347.72 3488.22,347.12 3490.62,347.12C3492.92,347.12 3493.22,347.62 3493.52,352.22L3493.82,357.22L3499.02,356.92L3504.22,356.52L3503.82,359.62C3503.52,362.62 3503.12,362.82 3498.32,363.32C3494.32,363.72 3493.22,364.22 3493.22,365.62C3493.32,366.62 3493.42,371.22 3493.52,375.72C3493.72,382.82 3494.02,384.42 3496.22,386.92C3498.72,389.82 3498.72,389.82 3500.92,387.92C3503.02,385.92 3503.12,385.92 3503.02,387.92C3503.02,389.02 3502.72,390.42 3502.32,391.02C3501.22,392.72 3493.52,393.72 3491.32,392.42ZM3498.92,375.82C3498.92,374.62 3499.42,373.72 3499.92,373.72C3500.52,373.72 3501.02,374.62 3501.02,375.82C3501.02,376.92 3500.52,377.92 3499.92,377.92C3499.42,377.92 3498.92,376.92 3498.92,375.82Z" style="fill-rule:nonzero;"/>
        </g>
        <g transform="matrix(1,-2.77556e-17,2.77556e-17,1,-3200.9,-260.979)">
            <path d="M3270.82,527.895L3270.82,511.815C3270.82,510.415 3270.78,509.215 3270.78,508.055L3270.86,508.055C3271.26,509.095 3271.78,510.215 3272.54,511.535L3281.98,527.895L3289.18,527.895L3289.18,499.495L3282.98,499.495L3282.98,515.735C3282.98,517.095 3283.02,518.255 3283.02,519.375L3282.94,519.375C3282.58,518.335 3281.86,516.895 3281.22,515.695L3272.1,499.495L3264.62,499.495L3264.62,527.895L3270.82,527.895Z" style="fill-rule:nonzero;"/>
            <path d="M3303.66,528.375C3309.58,528.375 3314.06,524.735 3314.06,517.855C3314.06,510.975 3309.58,507.415 3303.66,507.415C3297.78,507.415 3293.3,510.975 3293.3,517.855C3293.3,524.735 3297.78,528.375 3303.66,528.375ZM3303.66,523.935C3301.18,523.935 3299.7,521.935 3299.7,517.855C3299.7,513.735 3301.18,511.855 3303.66,511.855C3306.18,511.855 3307.66,513.735 3307.66,517.855C3307.66,521.935 3306.18,523.935 3303.66,523.935Z" style="fill-rule:nonzero;"/>
            <path d="M3329.74,516.575C3329.86,516.015 3330.1,514.895 3330.14,514.415L3330.22,514.415C3330.26,514.895 3330.5,516.015 3330.62,516.575L3333.54,527.895L3339.78,527.895L3345.1,507.895L3338.98,507.895L3336.5,520.135C3336.38,520.695 3336.3,521.375 3336.22,522.055L3336.14,522.055C3336.06,521.375 3335.94,520.695 3335.82,520.135L3332.9,507.895L3327.46,507.895L3324.54,520.135C3324.38,520.695 3324.3,521.375 3324.22,522.055L3324.14,522.055C3324.06,521.375 3323.94,520.695 3323.86,520.135L3321.34,507.895L3315.22,507.895L3320.58,527.895L3326.82,527.895L3329.74,516.575Z" style="fill-rule:nonzero;"/>
            <path d="M3363.54,528.375C3366.66,528.375 3369.22,526.975 3370.22,524.735C3370.26,525.855 3370.34,526.935 3370.54,527.895L3376.78,527.895C3376.42,526.655 3376.22,524.695 3376.22,522.335L3376.22,515.695C3376.22,509.935 3373.34,507.415 3366.9,507.415C3361.22,507.415 3357.62,510.055 3357.3,514.495L3363.66,514.495C3363.78,512.575 3364.9,511.535 3366.86,511.535C3368.86,511.535 3369.82,512.535 3369.82,514.815L3369.82,515.495L3364.98,516.175C3361.94,516.575 3360.02,517.215 3358.7,518.135C3357.34,519.095 3356.66,520.575 3356.66,522.455C3356.66,526.015 3359.42,528.375 3363.54,528.375ZM3365.94,524.295C3364.26,524.295 3363.14,523.375 3363.14,521.975C3363.14,520.495 3364.22,519.655 3366.58,519.215L3370.02,518.655L3370.02,520.255C3370.02,522.655 3368.38,524.295 3365.94,524.295Z" style="fill-rule:nonzero;"/>
            <path d="M3392.14,527.895L3399.1,507.895L3392.5,507.895L3389.26,519.695C3388.98,520.615 3388.78,521.615 3388.66,522.535L3388.58,522.535C3388.46,521.615 3388.26,520.615 3387.98,519.695L3384.74,507.895L3378.14,507.895L3385.1,527.895L3392.14,527.895Z" style="fill-rule:nonzero;"/>
            <path d="M3406.82,528.375C3409.94,528.375 3412.5,526.975 3413.5,524.735C3413.54,525.855 3413.62,526.935 3413.82,527.895L3420.06,527.895C3419.7,526.655 3419.5,524.695 3419.5,522.335L3419.5,515.695C3419.5,509.935 3416.62,507.415 3410.18,507.415C3404.5,507.415 3400.9,510.055 3400.58,514.495L3406.94,514.495C3407.06,512.575 3408.18,511.535 3410.14,511.535C3412.14,511.535 3413.1,512.535 3413.1,514.815L3413.1,515.495L3408.26,516.175C3405.22,516.575 3403.3,517.215 3401.98,518.135C3400.62,519.095 3399.94,520.575 3399.94,522.455C3399.94,526.015 3402.7,528.375 3406.82,528.375ZM3409.22,524.295C3407.54,524.295 3406.42,523.375 3406.42,521.975C3406.42,520.495 3407.5,519.655 3409.86,519.215L3413.3,518.655L3413.3,520.255C3413.3,522.655 3411.66,524.295 3409.22,524.295Z" style="fill-rule:nonzero;"/>
            <path d="M3431.06,505.015L3431.06,499.175L3424.38,499.175L3424.38,505.015L3431.06,505.015ZM3430.94,527.895L3430.94,507.895L3424.5,507.895L3424.5,527.895L3430.94,527.895Z" style="fill-rule:nonzero;"/>
            <rect x="3436.3" y="498.895" width="6.44" height="29" style="fill-rule:nonzero;"/>
            <path d="M3453.34,528.375C3456.46,528.375 3459.02,526.975 3460.02,524.735C3460.06,525.855 3460.14,526.935 3460.34,527.895L3466.58,527.895C3466.22,526.655 3466.02,524.695 3466.02,522.335L3466.02,515.695C3466.02,509.935 3463.14,507.415 3456.7,507.415C3451.02,507.415 3447.42,510.055 3447.1,514.495L3453.46,514.495C3453.58,512.575 3454.7,511.535 3456.66,511.535C3458.66,511.535 3459.62,512.535 3459.62,514.815L3459.62,515.495L3454.78,516.175C3451.74,516.575 3449.82,517.215 3448.5,518.135C3447.14,519.095 3446.46,520.575 3446.46,522.455C3446.46,526.015 3449.22,528.375 3453.34,528.375ZM3455.74,524.295C3454.06,524.295 3452.94,523.375 3452.94,521.975C3452.94,520.495 3454.02,519.655 3456.38,519.215L3459.82,518.655L3459.82,520.255C3459.82,522.655 3458.18,524.295 3455.74,524.295Z" style="fill-rule:nonzero;"/>
            <path d="M3483.18,528.375C3488.22,528.375 3491.42,524.255 3491.42,517.895C3491.42,511.575 3488.3,507.415 3483.38,507.415C3480.62,507.415 3478.5,508.695 3477.46,510.615L3477.46,498.895L3471.02,498.895L3471.02,527.895L3476.74,527.895L3477.14,524.855C3478.18,527.015 3480.38,528.375 3483.18,528.375ZM3481.02,523.935C3478.66,523.935 3477.3,521.975 3477.3,518.735L3477.3,517.055C3477.3,513.855 3478.66,511.895 3480.98,511.895C3483.5,511.855 3484.82,514.095 3484.82,517.895C3484.82,521.775 3483.46,523.935 3481.02,523.935Z" style="fill-rule:nonzero;"/>
            <rect x="3495.42" y="498.895" width="6.44" height="29" style="fill-rule:nonzero;"/>
            <path d="M3525.66,517.415C3525.66,511.055 3522.14,507.415 3515.86,507.415C3509.62,507.415 3505.7,511.535 3505.7,518.095C3505.7,524.575 3509.7,528.375 3516.3,528.375C3520.46,528.375 3523.86,526.415 3525.46,523.135L3520.74,520.975C3519.82,522.815 3518.34,523.775 3516.38,523.775C3513.66,523.775 3511.86,522.055 3511.78,519.335L3525.66,519.335L3525.66,517.415ZM3511.82,515.735C3511.86,512.895 3513.26,511.215 3515.74,511.215C3518.14,511.215 3519.46,512.735 3519.46,515.575L3519.46,515.735L3511.82,515.735Z" style="fill-rule:nonzero;"/>
            <path d="M3536.14,518.615L3537.18,499.495L3529.98,499.495L3531.02,518.615L3536.14,518.615ZM3530.1,521.775L3530.1,527.895L3537.06,527.895L3537.06,521.775L3530.1,521.775Z" style="fill-rule:nonzero;"/>
        </g>
    </g>
</svg>
